<mxfile host="app.diagrams.net" modified="2022-06-18T11:56:13.203Z" agent="5.0 (Windows NT 10.0; Win64; x64) AppleWebKit/537.36 (KHTML, like Gecko) Chrome/102.0.5005.124 Safari/537.36 Edg/102.0.1245.44" etag="ulw_Ztnt89c8nDGGl4yt" version="17.4.1" type="github">
  <diagram id="LvWteH5Bi2SbNhsPhGSD" name="第 1 页">
    <mxGraphModel dx="1038" dy="556" grid="1" gridSize="10" guides="1" tooltips="1" connect="1" arrows="1" fold="1" page="1" pageScale="1" pageWidth="827" pageHeight="1169" math="1" shadow="0">
      <root>
        <mxCell id="0" />
        <mxCell id="1" parent="0" />
        <mxCell id="UoSoZl50-tEkdu6xtE2z-11" style="edgeStyle=orthogonalEdgeStyle;rounded=0;orthogonalLoop=1;jettySize=auto;html=1;exitX=1;exitY=0.5;exitDx=0;exitDy=0;entryX=0;entryY=0.5;entryDx=0;entryDy=0;" edge="1" parent="1" source="UoSoZl50-tEkdu6xtE2z-1" target="UoSoZl50-tEkdu6xtE2z-2">
          <mxGeometry relative="1" as="geometry" />
        </mxCell>
        <mxCell id="UoSoZl50-tEkdu6xtE2z-1" value="7x7 Conv, ReLU, BN&amp;nbsp;" style="rounded=0;whiteSpace=wrap;html=1;" vertex="1" parent="1">
          <mxGeometry x="40" y="160" width="80" height="30" as="geometry" />
        </mxCell>
        <mxCell id="UoSoZl50-tEkdu6xtE2z-12" style="edgeStyle=orthogonalEdgeStyle;rounded=0;orthogonalLoop=1;jettySize=auto;html=1;exitX=1;exitY=0.5;exitDx=0;exitDy=0;entryX=0;entryY=0.5;entryDx=0;entryDy=0;" edge="1" parent="1" source="UoSoZl50-tEkdu6xtE2z-2" target="UoSoZl50-tEkdu6xtE2z-3">
          <mxGeometry relative="1" as="geometry" />
        </mxCell>
        <mxCell id="UoSoZl50-tEkdu6xtE2z-2" value="Block1&lt;br&gt;(Conv, BN, JA, ReLU, MAP2-2)" style="rounded=0;whiteSpace=wrap;html=1;" vertex="1" parent="1">
          <mxGeometry x="160" y="145" width="80" height="60" as="geometry" />
        </mxCell>
        <mxCell id="UoSoZl50-tEkdu6xtE2z-13" style="edgeStyle=orthogonalEdgeStyle;rounded=0;orthogonalLoop=1;jettySize=auto;html=1;exitX=1;exitY=0.5;exitDx=0;exitDy=0;entryX=0;entryY=0.5;entryDx=0;entryDy=0;" edge="1" parent="1" source="UoSoZl50-tEkdu6xtE2z-3" target="UoSoZl50-tEkdu6xtE2z-4">
          <mxGeometry relative="1" as="geometry" />
        </mxCell>
        <mxCell id="UoSoZl50-tEkdu6xtE2z-3" value="Block2&lt;br&gt;" style="rounded=0;whiteSpace=wrap;html=1;" vertex="1" parent="1">
          <mxGeometry x="280" y="150" width="80" height="50" as="geometry" />
        </mxCell>
        <mxCell id="UoSoZl50-tEkdu6xtE2z-14" style="edgeStyle=orthogonalEdgeStyle;rounded=0;orthogonalLoop=1;jettySize=auto;html=1;exitX=1;exitY=0.5;exitDx=0;exitDy=0;entryX=0;entryY=0.5;entryDx=0;entryDy=0;" edge="1" parent="1" source="UoSoZl50-tEkdu6xtE2z-4" target="UoSoZl50-tEkdu6xtE2z-6">
          <mxGeometry relative="1" as="geometry" />
        </mxCell>
        <mxCell id="UoSoZl50-tEkdu6xtE2z-4" value="Block3" style="rounded=0;whiteSpace=wrap;html=1;" vertex="1" parent="1">
          <mxGeometry x="400" y="150" width="80" height="50" as="geometry" />
        </mxCell>
        <mxCell id="UoSoZl50-tEkdu6xtE2z-10" style="edgeStyle=orthogonalEdgeStyle;rounded=0;orthogonalLoop=1;jettySize=auto;html=1;exitX=0.5;exitY=0;exitDx=0;exitDy=0;" edge="1" parent="1" source="UoSoZl50-tEkdu6xtE2z-6">
          <mxGeometry relative="1" as="geometry">
            <mxPoint x="540" y="120" as="targetPoint" />
          </mxGeometry>
        </mxCell>
        <mxCell id="UoSoZl50-tEkdu6xtE2z-15" style="edgeStyle=orthogonalEdgeStyle;rounded=0;orthogonalLoop=1;jettySize=auto;html=1;exitX=1;exitY=0.5;exitDx=0;exitDy=0;entryX=0;entryY=0.5;entryDx=0;entryDy=0;" edge="1" parent="1" source="UoSoZl50-tEkdu6xtE2z-6" target="UoSoZl50-tEkdu6xtE2z-7">
          <mxGeometry relative="1" as="geometry" />
        </mxCell>
        <mxCell id="UoSoZl50-tEkdu6xtE2z-6" value="FC" style="rounded=0;whiteSpace=wrap;html=1;" vertex="1" parent="1">
          <mxGeometry x="520" y="160" width="40" height="30" as="geometry" />
        </mxCell>
        <mxCell id="UoSoZl50-tEkdu6xtE2z-16" style="edgeStyle=orthogonalEdgeStyle;rounded=0;orthogonalLoop=1;jettySize=auto;html=1;exitX=1;exitY=0.5;exitDx=0;exitDy=0;entryX=0;entryY=0.5;entryDx=0;entryDy=0;" edge="1" parent="1" source="UoSoZl50-tEkdu6xtE2z-7" target="UoSoZl50-tEkdu6xtE2z-8">
          <mxGeometry relative="1" as="geometry" />
        </mxCell>
        <mxCell id="UoSoZl50-tEkdu6xtE2z-17" style="edgeStyle=orthogonalEdgeStyle;rounded=0;orthogonalLoop=1;jettySize=auto;html=1;exitX=0.5;exitY=1;exitDx=0;exitDy=0;strokeColor=#FF3333;entryX=0.5;entryY=0;entryDx=0;entryDy=0;" edge="1" parent="1" source="UoSoZl50-tEkdu6xtE2z-7" target="UoSoZl50-tEkdu6xtE2z-25">
          <mxGeometry relative="1" as="geometry">
            <mxPoint x="620" y="120" as="targetPoint" />
          </mxGeometry>
        </mxCell>
        <mxCell id="UoSoZl50-tEkdu6xtE2z-7" value="BN" style="rounded=0;whiteSpace=wrap;html=1;" vertex="1" parent="1">
          <mxGeometry x="600" y="160" width="40" height="30" as="geometry" />
        </mxCell>
        <mxCell id="UoSoZl50-tEkdu6xtE2z-18" style="edgeStyle=orthogonalEdgeStyle;rounded=0;orthogonalLoop=1;jettySize=auto;html=1;exitX=0.5;exitY=0;exitDx=0;exitDy=0;" edge="1" parent="1" source="UoSoZl50-tEkdu6xtE2z-8">
          <mxGeometry relative="1" as="geometry">
            <mxPoint x="700" y="120" as="targetPoint" />
          </mxGeometry>
        </mxCell>
        <mxCell id="UoSoZl50-tEkdu6xtE2z-8" value="FC" style="rounded=0;whiteSpace=wrap;html=1;" vertex="1" parent="1">
          <mxGeometry x="680" y="160" width="40" height="30" as="geometry" />
        </mxCell>
        <mxCell id="UoSoZl50-tEkdu6xtE2z-22" value="&lt;span style=&quot;color: rgb(0 , 0 , 0) ; font-family: &amp;#34;helvetica&amp;#34; ; font-size: 12px ; font-style: normal ; font-weight: 400 ; letter-spacing: normal ; text-align: center ; text-indent: 0px ; text-transform: none ; word-spacing: 0px ; background-color: rgb(248 , 249 , 250) ; display: inline ; float: none&quot;&gt;L2 Norm,&lt;br&gt;Triplet Loss&lt;/span&gt;" style="ellipse;whiteSpace=wrap;html=1;" vertex="1" parent="1">
          <mxGeometry x="490" y="80" width="100" height="40" as="geometry" />
        </mxCell>
        <mxCell id="UoSoZl50-tEkdu6xtE2z-23" value="Softmax Loss" style="ellipse;whiteSpace=wrap;html=1;" vertex="1" parent="1">
          <mxGeometry x="655" y="80" width="90" height="40" as="geometry" />
        </mxCell>
        <mxCell id="UoSoZl50-tEkdu6xtE2z-25" value="&lt;font face=&quot;Comic Sans MS&quot;&gt;Feature for matching&lt;/font&gt;" style="ellipse;whiteSpace=wrap;html=1;fillColor=#FF8000;strokeColor=#FFFFFF;" vertex="1" parent="1">
          <mxGeometry x="570" y="220" width="100" height="40" as="geometry" />
        </mxCell>
        <mxCell id="UoSoZl50-tEkdu6xtE2z-26" value="64" style="text;html=1;resizable=0;autosize=1;align=center;verticalAlign=middle;points=[];fillColor=none;strokeColor=none;rounded=0;fontFamily=Comic Sans MS;" vertex="1" parent="1">
          <mxGeometry x="120" y="150" width="30" height="20" as="geometry" />
        </mxCell>
        <mxCell id="UoSoZl50-tEkdu6xtE2z-28" value="128" style="text;html=1;resizable=0;autosize=1;align=center;verticalAlign=middle;points=[];fillColor=none;strokeColor=none;rounded=0;fontFamily=Comic Sans MS;" vertex="1" parent="1">
          <mxGeometry x="240" y="150" width="40" height="20" as="geometry" />
        </mxCell>
        <mxCell id="UoSoZl50-tEkdu6xtE2z-29" value="256" style="text;html=1;resizable=0;autosize=1;align=center;verticalAlign=middle;points=[];fillColor=none;strokeColor=none;rounded=0;fontFamily=Comic Sans MS;" vertex="1" parent="1">
          <mxGeometry x="360" y="150" width="40" height="20" as="geometry" />
        </mxCell>
        <mxCell id="UoSoZl50-tEkdu6xtE2z-30" value="512" style="text;html=1;resizable=0;autosize=1;align=center;verticalAlign=middle;points=[];fillColor=none;strokeColor=none;rounded=0;fontFamily=Comic Sans MS;" vertex="1" parent="1">
          <mxGeometry x="480" y="150" width="40" height="20" as="geometry" />
        </mxCell>
        <mxCell id="UoSoZl50-tEkdu6xtE2z-35" style="rounded=0;orthogonalLoop=1;jettySize=auto;html=1;exitX=0.5;exitY=1;exitDx=0;exitDy=0;entryX=0.5;entryY=0;entryDx=0;entryDy=0;fontFamily=Comic Sans MS;strokeColor=#000000;fillColor=#000000;" edge="1" parent="1" source="UoSoZl50-tEkdu6xtE2z-34" target="UoSoZl50-tEkdu6xtE2z-1">
          <mxGeometry relative="1" as="geometry" />
        </mxCell>
        <mxCell id="UoSoZl50-tEkdu6xtE2z-34" value="Input Images&lt;br&gt;128x128" style="shape=parallelogram;perimeter=parallelogramPerimeter;whiteSpace=wrap;html=1;fixedSize=1;fontFamily=Comic Sans MS;strokeColor=#330000;fillColor=#CCE5FF;" vertex="1" parent="1">
          <mxGeometry x="20" y="85" width="120" height="35" as="geometry" />
        </mxCell>
        <mxCell id="UoSoZl50-tEkdu6xtE2z-36" value="&lt;b&gt;GeM &lt;/b&gt;means&amp;nbsp;&lt;span style=&quot;text-align: left ; background-color: rgb(255 , 255 , 255)&quot;&gt;&lt;font style=&quot;font-size: 10px&quot;&gt;Generalized-mean pooling&lt;/font&gt;&lt;/span&gt;" style="text;html=1;resizable=0;autosize=1;align=center;verticalAlign=middle;points=[];fillColor=none;strokeColor=none;rounded=0;fontFamily=Comic Sans MS;" vertex="1" parent="1">
          <mxGeometry x="265" y="220" width="230" height="20" as="geometry" />
        </mxCell>
        <mxCell id="UoSoZl50-tEkdu6xtE2z-37" value="&lt;b&gt;GeM&lt;/b&gt;" style="text;html=1;resizable=0;autosize=1;align=center;verticalAlign=middle;points=[];fillColor=none;strokeColor=none;rounded=0;fontFamily=Comic Sans MS;" vertex="1" parent="1">
          <mxGeometry x="480" y="180" width="40" height="20" as="geometry" />
        </mxCell>
        <mxCell id="UoSoZl50-tEkdu6xtE2z-39" value="&lt;b&gt;&lt;font style=&quot;font-size: 18px&quot;&gt;JAFVNet&lt;/font&gt;&lt;/b&gt;" style="text;html=1;resizable=0;autosize=1;align=center;verticalAlign=middle;points=[];fillColor=none;strokeColor=none;rounded=0;fontFamily=Comic Sans MS;" vertex="1" parent="1">
          <mxGeometry x="30" y="30" width="100" height="20" as="geometry" />
        </mxCell>
        <mxCell id="UoSoZl50-tEkdu6xtE2z-42" value="" style="endArrow=none;html=1;rounded=0;fontFamily=Comic Sans MS;fontSize=18;strokeColor=#000000;fillColor=#000000;" edge="1" parent="1">
          <mxGeometry width="50" height="50" relative="1" as="geometry">
            <mxPoint y="280" as="sourcePoint" />
            <mxPoint x="830" y="280" as="targetPoint" />
          </mxGeometry>
        </mxCell>
        <mxCell id="UoSoZl50-tEkdu6xtE2z-43" value="" style="endArrow=none;html=1;rounded=0;fontFamily=Comic Sans MS;fontSize=18;strokeColor=#000000;fillColor=#000000;" edge="1" parent="1">
          <mxGeometry width="50" height="50" relative="1" as="geometry">
            <mxPoint x="827" as="sourcePoint" />
            <mxPoint x="827" y="280" as="targetPoint" />
          </mxGeometry>
        </mxCell>
      </root>
    </mxGraphModel>
  </diagram>
</mxfile>
